<mxfile host="app.diagrams.net" modified="2022-04-21T11:38:54.504Z" agent="5.0 (Windows NT 10.0; Win64; x64) AppleWebKit/537.36 (KHTML, like Gecko) Chrome/100.0.4896.127 Safari/537.36" etag="mYtkFAgnTh0z42sGRzEx" version="17.4.5" type="github">
  <diagram id="6ige6W38f8K3FooyLVYq" name="Página-1">
    <mxGraphModel dx="868" dy="527" grid="1" gridSize="10" guides="1" tooltips="1" connect="1" arrows="1" fold="1" page="1" pageScale="1" pageWidth="827" pageHeight="1169" math="0" shadow="0">
      <root>
        <mxCell id="0" />
        <mxCell id="1" parent="0" />
        <mxCell id="l2YeyNYo_XrpYZh6Aza8-1" value="Ejemplar" style="rounded=0;whiteSpace=wrap;html=1;fontStyle=1" parent="1" vertex="1">
          <mxGeometry x="800" y="408" width="120" height="70" as="geometry" />
        </mxCell>
        <mxCell id="l2YeyNYo_XrpYZh6Aza8-5" style="edgeStyle=orthogonalEdgeStyle;rounded=0;orthogonalLoop=1;jettySize=auto;html=1;exitX=0.5;exitY=1;exitDx=0;exitDy=0;entryX=0.5;entryY=0;entryDx=0;entryDy=0;endArrow=none;endFill=0;" parent="1" source="l2YeyNYo_XrpYZh6Aza8-2" target="l2YeyNYo_XrpYZh6Aza8-4" edge="1">
          <mxGeometry relative="1" as="geometry" />
        </mxCell>
        <mxCell id="l2YeyNYo_XrpYZh6Aza8-25" style="edgeStyle=orthogonalEdgeStyle;rounded=0;orthogonalLoop=1;jettySize=auto;html=1;exitX=0.991;exitY=0.104;exitDx=0;exitDy=0;endArrow=oval;endFill=1;exitPerimeter=0;" parent="1" source="l2YeyNYo_XrpYZh6Aza8-2" edge="1">
          <mxGeometry relative="1" as="geometry">
            <mxPoint x="940" y="151.0344827586207" as="targetPoint" />
          </mxGeometry>
        </mxCell>
        <mxCell id="l2YeyNYo_XrpYZh6Aza8-2" value="Disfraz" style="rounded=0;whiteSpace=wrap;html=1;fontStyle=1" parent="1" vertex="1">
          <mxGeometry x="800" y="141" width="120" height="90" as="geometry" />
        </mxCell>
        <mxCell id="l2YeyNYo_XrpYZh6Aza8-55" style="edgeStyle=none;rounded=0;orthogonalLoop=1;jettySize=auto;html=1;exitX=1;exitY=0.25;exitDx=0;exitDy=0;endArrow=oval;endFill=1;" parent="1" source="l2YeyNYo_XrpYZh6Aza8-3" edge="1">
          <mxGeometry relative="1" as="geometry">
            <mxPoint x="350" y="270" as="targetPoint" />
          </mxGeometry>
        </mxCell>
        <mxCell id="l2YeyNYo_XrpYZh6Aza8-57" style="edgeStyle=none;rounded=0;orthogonalLoop=1;jettySize=auto;html=1;exitX=1;exitY=0.75;exitDx=0;exitDy=0;endArrow=oval;endFill=0;" parent="1" source="l2YeyNYo_XrpYZh6Aza8-3" edge="1">
          <mxGeometry relative="1" as="geometry">
            <mxPoint x="350" y="290" as="targetPoint" />
          </mxGeometry>
        </mxCell>
        <mxCell id="l2YeyNYo_XrpYZh6Aza8-3" value="Cliente" style="rounded=0;whiteSpace=wrap;html=1;fontStyle=1" parent="1" vertex="1">
          <mxGeometry x="210" y="260" width="120" height="40" as="geometry" />
        </mxCell>
        <mxCell id="l2YeyNYo_XrpYZh6Aza8-6" style="edgeStyle=orthogonalEdgeStyle;rounded=0;orthogonalLoop=1;jettySize=auto;html=1;exitX=0.5;exitY=1;exitDx=0;exitDy=0;entryX=0.5;entryY=0;entryDx=0;entryDy=0;endArrow=none;endFill=0;" parent="1" source="l2YeyNYo_XrpYZh6Aza8-4" target="l2YeyNYo_XrpYZh6Aza8-1" edge="1">
          <mxGeometry relative="1" as="geometry">
            <Array as="points">
              <mxPoint x="860" y="361" />
              <mxPoint x="860" y="361" />
            </Array>
          </mxGeometry>
        </mxCell>
        <mxCell id="l2YeyNYo_XrpYZh6Aza8-4" value="posee" style="rhombus;whiteSpace=wrap;html=1;" parent="1" vertex="1">
          <mxGeometry x="820" y="291" width="80" height="80" as="geometry" />
        </mxCell>
        <mxCell id="l2YeyNYo_XrpYZh6Aza8-9" style="edgeStyle=orthogonalEdgeStyle;rounded=0;orthogonalLoop=1;jettySize=auto;html=1;exitX=0.5;exitY=0;exitDx=0;exitDy=0;entryX=0.5;entryY=1;entryDx=0;entryDy=0;endArrow=none;endFill=0;" parent="1" source="l2YeyNYo_XrpYZh6Aza8-7" target="l2YeyNYo_XrpYZh6Aza8-3" edge="1">
          <mxGeometry relative="1" as="geometry" />
        </mxCell>
        <mxCell id="l2YeyNYo_XrpYZh6Aza8-70" style="edgeStyle=none;rounded=0;orthogonalLoop=1;jettySize=auto;html=1;exitX=0.25;exitY=1;exitDx=0;exitDy=0;endArrow=oval;endFill=1;" parent="1" source="l2YeyNYo_XrpYZh6Aza8-7" edge="1">
          <mxGeometry relative="1" as="geometry">
            <mxPoint x="80.39999999999998" y="500" as="targetPoint" />
          </mxGeometry>
        </mxCell>
        <mxCell id="l2YeyNYo_XrpYZh6Aza8-71" style="edgeStyle=none;rounded=0;orthogonalLoop=1;jettySize=auto;html=1;exitX=0.5;exitY=1;exitDx=0;exitDy=0;endArrow=oval;endFill=0;" parent="1" source="l2YeyNYo_XrpYZh6Aza8-7" edge="1">
          <mxGeometry relative="1" as="geometry">
            <mxPoint x="110" y="480" as="targetPoint" />
          </mxGeometry>
        </mxCell>
        <mxCell id="l2YeyNYo_XrpYZh6Aza8-72" style="edgeStyle=none;rounded=0;orthogonalLoop=1;jettySize=auto;html=1;exitX=0.75;exitY=1;exitDx=0;exitDy=0;endArrow=oval;endFill=0;" parent="1" source="l2YeyNYo_XrpYZh6Aza8-7" edge="1">
          <mxGeometry relative="1" as="geometry">
            <mxPoint x="140.39999999999998" y="450" as="targetPoint" />
          </mxGeometry>
        </mxCell>
        <mxCell id="l2YeyNYo_XrpYZh6Aza8-7" value="Persona" style="rounded=0;whiteSpace=wrap;html=1;fontStyle=1" parent="1" vertex="1">
          <mxGeometry x="50" y="380" width="120" height="40" as="geometry" />
        </mxCell>
        <mxCell id="l2YeyNYo_XrpYZh6Aza8-10" style="edgeStyle=orthogonalEdgeStyle;rounded=0;orthogonalLoop=1;jettySize=auto;html=1;exitX=0.5;exitY=0;exitDx=0;exitDy=0;entryX=0.5;entryY=1;entryDx=0;entryDy=0;endArrow=classic;endFill=1;" parent="1" source="l2YeyNYo_XrpYZh6Aza8-8" target="l2YeyNYo_XrpYZh6Aza8-3" edge="1">
          <mxGeometry relative="1" as="geometry" />
        </mxCell>
        <mxCell id="l2YeyNYo_XrpYZh6Aza8-78" style="edgeStyle=none;rounded=0;orthogonalLoop=1;jettySize=auto;html=1;exitX=0.25;exitY=1;exitDx=0;exitDy=0;fontColor=#FF6666;endArrow=oval;endFill=0;" parent="1" source="l2YeyNYo_XrpYZh6Aza8-8" edge="1">
          <mxGeometry relative="1" as="geometry">
            <mxPoint x="410" y="480" as="targetPoint" />
          </mxGeometry>
        </mxCell>
        <mxCell id="l2YeyNYo_XrpYZh6Aza8-79" style="edgeStyle=none;rounded=0;orthogonalLoop=1;jettySize=auto;html=1;exitX=0.75;exitY=1;exitDx=0;exitDy=0;fontColor=#FF6666;endArrow=oval;endFill=0;" parent="1" source="l2YeyNYo_XrpYZh6Aza8-8" edge="1">
          <mxGeometry relative="1" as="geometry">
            <mxPoint x="470" y="450" as="targetPoint" />
          </mxGeometry>
        </mxCell>
        <mxCell id="l2YeyNYo_XrpYZh6Aza8-8" value="Institución" style="rounded=0;whiteSpace=wrap;html=1;fontStyle=1" parent="1" vertex="1">
          <mxGeometry x="380" y="380" width="120" height="40" as="geometry" />
        </mxCell>
        <mxCell id="l2YeyNYo_XrpYZh6Aza8-11" value="(T,E)" style="text;html=1;align=center;verticalAlign=middle;resizable=0;points=[];autosize=1;strokeColor=none;fillColor=none;" parent="1" vertex="1">
          <mxGeometry x="270" y="300" width="40" height="20" as="geometry" />
        </mxCell>
        <mxCell id="l2YeyNYo_XrpYZh6Aza8-14" style="edgeStyle=orthogonalEdgeStyle;rounded=0;orthogonalLoop=1;jettySize=auto;html=1;exitX=0;exitY=0.5;exitDx=0;exitDy=0;entryX=1;entryY=0.5;entryDx=0;entryDy=0;endArrow=none;endFill=0;" parent="1" source="l2YeyNYo_XrpYZh6Aza8-12" target="l2YeyNYo_XrpYZh6Aza8-13" edge="1">
          <mxGeometry relative="1" as="geometry" />
        </mxCell>
        <mxCell id="l2YeyNYo_XrpYZh6Aza8-17" style="edgeStyle=orthogonalEdgeStyle;rounded=0;orthogonalLoop=1;jettySize=auto;html=1;exitX=0.5;exitY=1;exitDx=0;exitDy=0;entryX=0.5;entryY=0;entryDx=0;entryDy=0;endArrow=none;endFill=0;" parent="1" source="l2YeyNYo_XrpYZh6Aza8-12" target="l2YeyNYo_XrpYZh6Aza8-16" edge="1">
          <mxGeometry relative="1" as="geometry" />
        </mxCell>
        <mxCell id="l2YeyNYo_XrpYZh6Aza8-59" style="edgeStyle=none;rounded=0;orthogonalLoop=1;jettySize=auto;html=1;exitX=0.25;exitY=0;exitDx=0;exitDy=0;endArrow=oval;endFill=0;" parent="1" edge="1">
          <mxGeometry relative="1" as="geometry">
            <mxPoint x="605.4000000000001" y="50" as="targetPoint" />
            <mxPoint x="605" y="170" as="sourcePoint" />
          </mxGeometry>
        </mxCell>
        <mxCell id="l2YeyNYo_XrpYZh6Aza8-61" style="edgeStyle=none;rounded=0;orthogonalLoop=1;jettySize=auto;html=1;exitX=0.5;exitY=0;exitDx=0;exitDy=0;endArrow=oval;endFill=0;" parent="1" edge="1">
          <mxGeometry relative="1" as="geometry">
            <mxPoint x="664" y="70" as="targetPoint" />
            <mxPoint x="664" y="170" as="sourcePoint" />
          </mxGeometry>
        </mxCell>
        <mxCell id="l2YeyNYo_XrpYZh6Aza8-63" style="edgeStyle=none;rounded=0;orthogonalLoop=1;jettySize=auto;html=1;exitX=0.5;exitY=0;exitDx=0;exitDy=0;endArrow=oval;endFill=0;" parent="1" edge="1">
          <mxGeometry relative="1" as="geometry">
            <mxPoint x="679" y="90" as="targetPoint" />
            <mxPoint x="679" y="170" as="sourcePoint" />
          </mxGeometry>
        </mxCell>
        <mxCell id="l2YeyNYo_XrpYZh6Aza8-65" style="edgeStyle=none;rounded=0;orthogonalLoop=1;jettySize=auto;html=1;exitX=0.5;exitY=0;exitDx=0;exitDy=0;endArrow=oval;endFill=0;" parent="1" edge="1">
          <mxGeometry relative="1" as="geometry">
            <mxPoint x="693" y="110" as="targetPoint" />
            <mxPoint x="693" y="170" as="sourcePoint" />
          </mxGeometry>
        </mxCell>
        <mxCell id="l2YeyNYo_XrpYZh6Aza8-12" value="Alquiler" style="rounded=0;whiteSpace=wrap;html=1;fontStyle=1" parent="1" vertex="1">
          <mxGeometry x="590" y="170" width="120" height="40" as="geometry" />
        </mxCell>
        <mxCell id="l2YeyNYo_XrpYZh6Aza8-15" style="edgeStyle=orthogonalEdgeStyle;rounded=0;orthogonalLoop=1;jettySize=auto;html=1;exitX=0;exitY=0.5;exitDx=0;exitDy=0;entryX=0.5;entryY=0;entryDx=0;entryDy=0;endArrow=none;endFill=0;" parent="1" source="l2YeyNYo_XrpYZh6Aza8-13" target="l2YeyNYo_XrpYZh6Aza8-3" edge="1">
          <mxGeometry relative="1" as="geometry" />
        </mxCell>
        <mxCell id="l2YeyNYo_XrpYZh6Aza8-13" value="utiliza" style="rhombus;whiteSpace=wrap;html=1;" parent="1" vertex="1">
          <mxGeometry x="400" y="150" width="80" height="80" as="geometry" />
        </mxCell>
        <mxCell id="l2YeyNYo_XrpYZh6Aza8-21" style="edgeStyle=orthogonalEdgeStyle;rounded=0;orthogonalLoop=1;jettySize=auto;html=1;exitX=0;exitY=0.5;exitDx=0;exitDy=0;endArrow=oval;endFill=0;" parent="1" source="l2YeyNYo_XrpYZh6Aza8-16" edge="1">
          <mxGeometry relative="1" as="geometry">
            <mxPoint x="580" y="290" as="targetPoint" />
          </mxGeometry>
        </mxCell>
        <mxCell id="e1RtdXPbOuEuxf_b0oKc-1" style="edgeStyle=orthogonalEdgeStyle;rounded=0;orthogonalLoop=1;jettySize=auto;html=1;exitX=0.5;exitY=1;exitDx=0;exitDy=0;entryX=0;entryY=0.5;entryDx=0;entryDy=0;endArrow=none;endFill=0;" parent="1" source="l2YeyNYo_XrpYZh6Aza8-16" target="l2YeyNYo_XrpYZh6Aza8-1" edge="1">
          <mxGeometry relative="1" as="geometry" />
        </mxCell>
        <mxCell id="l2YeyNYo_XrpYZh6Aza8-16" value="presta" style="rhombus;whiteSpace=wrap;html=1;" parent="1" vertex="1">
          <mxGeometry x="610" y="250" width="80" height="80" as="geometry" />
        </mxCell>
        <mxCell id="l2YeyNYo_XrpYZh6Aza8-19" value="(1,N)" style="text;html=1;align=center;verticalAlign=middle;resizable=0;points=[];autosize=1;strokeColor=none;fillColor=none;" parent="1" vertex="1">
          <mxGeometry x="650" y="210" width="40" height="20" as="geometry" />
        </mxCell>
        <mxCell id="l2YeyNYo_XrpYZh6Aza8-20" value="(0,N)" style="text;html=1;align=center;verticalAlign=middle;resizable=0;points=[];autosize=1;strokeColor=none;fillColor=none;" parent="1" vertex="1">
          <mxGeometry x="758" y="422" width="40" height="20" as="geometry" />
        </mxCell>
        <mxCell id="l2YeyNYo_XrpYZh6Aza8-22" value="costo" style="text;html=1;align=center;verticalAlign=middle;resizable=0;points=[];autosize=1;strokeColor=none;fillColor=none;" parent="1" vertex="1">
          <mxGeometry x="537" y="280" width="40" height="20" as="geometry" />
        </mxCell>
        <mxCell id="l2YeyNYo_XrpYZh6Aza8-23" value="(1,N)" style="text;html=1;align=center;verticalAlign=middle;resizable=0;points=[];autosize=1;strokeColor=none;fillColor=none;" parent="1" vertex="1">
          <mxGeometry x="860" y="231" width="40" height="20" as="geometry" />
        </mxCell>
        <mxCell id="l2YeyNYo_XrpYZh6Aza8-24" value="(1,1)" style="text;html=1;align=center;verticalAlign=middle;resizable=0;points=[];autosize=1;strokeColor=none;fillColor=none;" parent="1" vertex="1">
          <mxGeometry x="860" y="388" width="40" height="20" as="geometry" />
        </mxCell>
        <mxCell id="l2YeyNYo_XrpYZh6Aza8-26" value="nomPersonaje" style="text;html=1;align=center;verticalAlign=middle;resizable=0;points=[];autosize=1;strokeColor=none;fillColor=none;" parent="1" vertex="1">
          <mxGeometry x="940" y="140" width="90" height="20" as="geometry" />
        </mxCell>
        <mxCell id="l2YeyNYo_XrpYZh6Aza8-27" style="edgeStyle=orthogonalEdgeStyle;rounded=0;orthogonalLoop=1;jettySize=auto;html=1;exitX=0.997;exitY=0.133;exitDx=0;exitDy=0;endArrow=oval;endFill=0;exitPerimeter=0;" parent="1" edge="1">
          <mxGeometry relative="1" as="geometry">
            <mxPoint x="940" y="168.0344827586207" as="targetPoint" />
            <mxPoint x="919.6400000000001" y="167.30999999999995" as="sourcePoint" />
          </mxGeometry>
        </mxCell>
        <mxCell id="l2YeyNYo_XrpYZh6Aza8-28" value="descripcion" style="text;html=1;align=center;verticalAlign=middle;resizable=0;points=[];autosize=1;strokeColor=none;fillColor=none;" parent="1" vertex="1">
          <mxGeometry x="937" y="157" width="80" height="20" as="geometry" />
        </mxCell>
        <mxCell id="l2YeyNYo_XrpYZh6Aza8-29" style="edgeStyle=orthogonalEdgeStyle;rounded=0;orthogonalLoop=1;jettySize=auto;html=1;exitX=0.997;exitY=0.133;exitDx=0;exitDy=0;endArrow=oval;endFill=0;exitPerimeter=0;" parent="1" edge="1">
          <mxGeometry relative="1" as="geometry">
            <mxPoint x="940" y="185.03448275862058" as="targetPoint" />
            <mxPoint x="919.6400000000001" y="184.30999999999995" as="sourcePoint" />
          </mxGeometry>
        </mxCell>
        <mxCell id="l2YeyNYo_XrpYZh6Aza8-30" value="costoActual" style="text;html=1;align=center;verticalAlign=middle;resizable=0;points=[];autosize=1;strokeColor=none;fillColor=none;" parent="1" vertex="1">
          <mxGeometry x="938" y="174" width="80" height="20" as="geometry" />
        </mxCell>
        <mxCell id="l2YeyNYo_XrpYZh6Aza8-31" style="edgeStyle=orthogonalEdgeStyle;rounded=0;orthogonalLoop=1;jettySize=auto;html=1;exitX=0.997;exitY=0.133;exitDx=0;exitDy=0;endArrow=oval;endFill=0;exitPerimeter=0;" parent="1" edge="1">
          <mxGeometry relative="1" as="geometry">
            <mxPoint x="940" y="202.03448275862058" as="targetPoint" />
            <mxPoint x="919.6400000000001" y="201.30999999999995" as="sourcePoint" />
          </mxGeometry>
        </mxCell>
        <mxCell id="l2YeyNYo_XrpYZh6Aza8-32" value="tela" style="text;html=1;align=center;verticalAlign=middle;resizable=0;points=[];autosize=1;strokeColor=none;fillColor=none;" parent="1" vertex="1">
          <mxGeometry x="942" y="192" width="30" height="20" as="geometry" />
        </mxCell>
        <mxCell id="l2YeyNYo_XrpYZh6Aza8-33" style="edgeStyle=orthogonalEdgeStyle;rounded=0;orthogonalLoop=1;jettySize=auto;html=1;exitX=0.997;exitY=0.133;exitDx=0;exitDy=0;endArrow=oval;endFill=0;exitPerimeter=0;" parent="1" edge="1">
          <mxGeometry relative="1" as="geometry">
            <mxPoint x="940" y="219.03448275862058" as="targetPoint" />
            <mxPoint x="919.6400000000001" y="218.30999999999995" as="sourcePoint" />
          </mxGeometry>
        </mxCell>
        <mxCell id="l2YeyNYo_XrpYZh6Aza8-34" value="colores(1,N)" style="text;html=1;align=center;verticalAlign=middle;resizable=0;points=[];autosize=1;strokeColor=none;fillColor=none;" parent="1" vertex="1">
          <mxGeometry x="939" y="208" width="80" height="20" as="geometry" />
        </mxCell>
        <mxCell id="l2YeyNYo_XrpYZh6Aza8-35" style="edgeStyle=orthogonalEdgeStyle;rounded=0;orthogonalLoop=1;jettySize=auto;html=1;exitX=0.991;exitY=0.104;exitDx=0;exitDy=0;endArrow=oval;endFill=0;exitPerimeter=0;" parent="1" edge="1">
          <mxGeometry relative="1" as="geometry">
            <mxPoint x="941.08" y="419.0344827586207" as="targetPoint" />
            <mxPoint x="920.0000000000001" y="418.36" as="sourcePoint" />
          </mxGeometry>
        </mxCell>
        <mxCell id="l2YeyNYo_XrpYZh6Aza8-36" value="codigoRel" style="text;html=1;align=center;verticalAlign=middle;resizable=0;points=[];autosize=1;strokeColor=none;fillColor=none;" parent="1" vertex="1">
          <mxGeometry x="939" y="408" width="70" height="20" as="geometry" />
        </mxCell>
        <mxCell id="l2YeyNYo_XrpYZh6Aza8-37" style="edgeStyle=orthogonalEdgeStyle;rounded=0;orthogonalLoop=1;jettySize=auto;html=1;exitX=0.997;exitY=0.133;exitDx=0;exitDy=0;endArrow=oval;endFill=0;exitPerimeter=0;" parent="1" edge="1">
          <mxGeometry relative="1" as="geometry">
            <mxPoint x="941.08" y="450.0344827586206" as="targetPoint" />
            <mxPoint x="920.7200000000001" y="449.30999999999995" as="sourcePoint" />
          </mxGeometry>
        </mxCell>
        <mxCell id="l2YeyNYo_XrpYZh6Aza8-38" value="talle" style="text;html=1;align=left;verticalAlign=middle;resizable=0;points=[];autosize=1;strokeColor=none;fillColor=none;" parent="1" vertex="1">
          <mxGeometry x="946.08" y="439" width="40" height="20" as="geometry" />
        </mxCell>
        <mxCell id="l2YeyNYo_XrpYZh6Aza8-39" style="edgeStyle=orthogonalEdgeStyle;rounded=0;orthogonalLoop=1;jettySize=auto;html=1;exitX=0.997;exitY=0.133;exitDx=0;exitDy=0;endArrow=oval;endFill=0;exitPerimeter=0;" parent="1" edge="1">
          <mxGeometry relative="1" as="geometry">
            <mxPoint x="941.08" y="467.03448275862047" as="targetPoint" />
            <mxPoint x="920.7200000000001" y="466.30999999999995" as="sourcePoint" />
          </mxGeometry>
        </mxCell>
        <mxCell id="l2YeyNYo_XrpYZh6Aza8-40" value="estado" style="text;html=1;align=center;verticalAlign=middle;resizable=0;points=[];autosize=1;strokeColor=none;fillColor=none;" parent="1" vertex="1">
          <mxGeometry x="940.08" y="456" width="50" height="20" as="geometry" />
        </mxCell>
        <mxCell id="l2YeyNYo_XrpYZh6Aza8-41" value="" style="curved=1;endArrow=oval;html=1;rounded=0;endFill=1;" parent="1" edge="1">
          <mxGeometry width="50" height="50" relative="1" as="geometry">
            <mxPoint x="860" y="271" as="sourcePoint" />
            <mxPoint x="930" y="431" as="targetPoint" />
            <Array as="points">
              <mxPoint x="930" y="311" />
              <mxPoint x="930" y="381" />
            </Array>
          </mxGeometry>
        </mxCell>
        <mxCell id="l2YeyNYo_XrpYZh6Aza8-44" style="edgeStyle=orthogonalEdgeStyle;rounded=0;orthogonalLoop=1;jettySize=auto;html=1;exitX=1;exitY=0.5;exitDx=0;exitDy=0;entryX=0;entryY=0.5;entryDx=0;entryDy=0;endArrow=none;endFill=0;" parent="1" source="l2YeyNYo_XrpYZh6Aza8-43" target="l2YeyNYo_XrpYZh6Aza8-3" edge="1">
          <mxGeometry relative="1" as="geometry" />
        </mxCell>
        <mxCell id="l2YeyNYo_XrpYZh6Aza8-45" style="rounded=0;orthogonalLoop=1;jettySize=auto;html=1;exitX=0;exitY=0;exitDx=0;exitDy=0;endArrow=oval;endFill=0;" parent="1" source="l2YeyNYo_XrpYZh6Aza8-43" edge="1">
          <mxGeometry relative="1" as="geometry">
            <mxPoint x="80" y="260" as="targetPoint" />
          </mxGeometry>
        </mxCell>
        <mxCell id="l2YeyNYo_XrpYZh6Aza8-46" style="edgeStyle=none;rounded=0;orthogonalLoop=1;jettySize=auto;html=1;exitX=0;exitY=0.5;exitDx=0;exitDy=0;endArrow=oval;endFill=0;" parent="1" source="l2YeyNYo_XrpYZh6Aza8-43" edge="1">
          <mxGeometry relative="1" as="geometry">
            <mxPoint x="80" y="280.4" as="targetPoint" />
          </mxGeometry>
        </mxCell>
        <mxCell id="l2YeyNYo_XrpYZh6Aza8-47" style="edgeStyle=none;rounded=0;orthogonalLoop=1;jettySize=auto;html=1;exitX=0;exitY=1;exitDx=0;exitDy=0;endArrow=oval;endFill=0;" parent="1" source="l2YeyNYo_XrpYZh6Aza8-43" edge="1">
          <mxGeometry relative="1" as="geometry">
            <mxPoint x="80" y="300" as="targetPoint" />
          </mxGeometry>
        </mxCell>
        <mxCell id="l2YeyNYo_XrpYZh6Aza8-48" style="edgeStyle=none;rounded=0;orthogonalLoop=1;jettySize=auto;html=1;exitX=0.5;exitY=0;exitDx=0;exitDy=0;endArrow=oval;endFill=0;" parent="1" source="l2YeyNYo_XrpYZh6Aza8-43" edge="1">
          <mxGeometry relative="1" as="geometry">
            <mxPoint x="80" y="240" as="targetPoint" />
          </mxGeometry>
        </mxCell>
        <mxCell id="l2YeyNYo_XrpYZh6Aza8-43" value="dirección" style="ellipse;whiteSpace=wrap;html=1;" parent="1" vertex="1">
          <mxGeometry x="100" y="265" width="70" height="30" as="geometry" />
        </mxCell>
        <mxCell id="l2YeyNYo_XrpYZh6Aza8-49" value="calle" style="text;html=1;align=center;verticalAlign=middle;resizable=0;points=[];autosize=1;strokeColor=none;fillColor=none;" parent="1" vertex="1">
          <mxGeometry x="40" y="230" width="40" height="20" as="geometry" />
        </mxCell>
        <mxCell id="l2YeyNYo_XrpYZh6Aza8-50" value="nro" style="text;html=1;align=center;verticalAlign=middle;resizable=0;points=[];autosize=1;strokeColor=none;fillColor=none;" parent="1" vertex="1">
          <mxGeometry x="50" y="250" width="30" height="20" as="geometry" />
        </mxCell>
        <mxCell id="l2YeyNYo_XrpYZh6Aza8-51" value="piso(0,1)" style="text;html=1;align=center;verticalAlign=middle;resizable=0;points=[];autosize=1;strokeColor=none;fillColor=none;" parent="1" vertex="1">
          <mxGeometry x="20" y="270" width="60" height="20" as="geometry" />
        </mxCell>
        <mxCell id="l2YeyNYo_XrpYZh6Aza8-52" value="dpto(0,1)" style="text;html=1;align=center;verticalAlign=middle;resizable=0;points=[];autosize=1;strokeColor=none;fillColor=none;" parent="1" vertex="1">
          <mxGeometry x="20" y="290" width="60" height="20" as="geometry" />
        </mxCell>
        <mxCell id="l2YeyNYo_XrpYZh6Aza8-56" value="nroUnico" style="text;html=1;align=center;verticalAlign=middle;resizable=0;points=[];autosize=1;strokeColor=none;fillColor=none;" parent="1" vertex="1">
          <mxGeometry x="354" y="259" width="60" height="20" as="geometry" />
        </mxCell>
        <mxCell id="l2YeyNYo_XrpYZh6Aza8-58" value="telefono" style="text;html=1;align=center;verticalAlign=middle;resizable=0;points=[];autosize=1;strokeColor=none;fillColor=none;" parent="1" vertex="1">
          <mxGeometry x="349" y="281" width="60" height="20" as="geometry" />
        </mxCell>
        <mxCell id="l2YeyNYo_XrpYZh6Aza8-60" value="fechaIni" style="text;html=1;align=center;verticalAlign=middle;resizable=0;points=[];autosize=1;strokeColor=none;fillColor=none;" parent="1" vertex="1">
          <mxGeometry x="603" y="40" width="60" height="20" as="geometry" />
        </mxCell>
        <mxCell id="l2YeyNYo_XrpYZh6Aza8-62" value="fechaDevProb" style="text;html=1;align=center;verticalAlign=middle;resizable=0;points=[];autosize=1;strokeColor=none;fillColor=none;" parent="1" vertex="1">
          <mxGeometry x="665" y="60" width="90" height="20" as="geometry" />
        </mxCell>
        <mxCell id="l2YeyNYo_XrpYZh6Aza8-64" value="fechaDev(0,1)" style="text;html=1;align=center;verticalAlign=middle;resizable=0;points=[];autosize=1;strokeColor=none;fillColor=none;" parent="1" vertex="1">
          <mxGeometry x="679" y="81" width="90" height="20" as="geometry" />
        </mxCell>
        <mxCell id="l2YeyNYo_XrpYZh6Aza8-66" value="costoTotal" style="text;html=1;align=center;verticalAlign=middle;resizable=0;points=[];autosize=1;strokeColor=none;fillColor=none;" parent="1" vertex="1">
          <mxGeometry x="692" y="101" width="70" height="20" as="geometry" />
        </mxCell>
        <mxCell id="l2YeyNYo_XrpYZh6Aza8-67" value="(1,1)" style="text;html=1;align=center;verticalAlign=middle;resizable=0;points=[];autosize=1;strokeColor=none;fillColor=none;" parent="1" vertex="1">
          <mxGeometry x="550" y="170" width="40" height="20" as="geometry" />
        </mxCell>
        <mxCell id="l2YeyNYo_XrpYZh6Aza8-68" value="(0,N)" style="text;html=1;align=center;verticalAlign=middle;resizable=0;points=[];autosize=1;strokeColor=none;fillColor=none;" parent="1" vertex="1">
          <mxGeometry x="270" y="239" width="40" height="20" as="geometry" />
        </mxCell>
        <mxCell id="l2YeyNYo_XrpYZh6Aza8-69" value="" style="curved=1;endArrow=oval;html=1;rounded=0;endFill=1;" parent="1" edge="1">
          <mxGeometry width="50" height="50" relative="1" as="geometry">
            <mxPoint x="330" y="190" as="sourcePoint" />
            <mxPoint x="620" y="130" as="targetPoint" />
            <Array as="points">
              <mxPoint x="390" y="110" />
            </Array>
          </mxGeometry>
        </mxCell>
        <mxCell id="l2YeyNYo_XrpYZh6Aza8-73" value="dni" style="text;html=1;align=center;verticalAlign=middle;resizable=0;points=[];autosize=1;strokeColor=none;fillColor=none;" parent="1" vertex="1">
          <mxGeometry x="80" y="490" width="30" height="20" as="geometry" />
        </mxCell>
        <mxCell id="l2YeyNYo_XrpYZh6Aza8-74" value="nyap" style="text;html=1;align=center;verticalAlign=middle;resizable=0;points=[];autosize=1;strokeColor=none;fillColor=none;" parent="1" vertex="1">
          <mxGeometry x="110" y="470" width="40" height="20" as="geometry" />
        </mxCell>
        <mxCell id="l2YeyNYo_XrpYZh6Aza8-75" value="email(0,1)" style="text;html=1;align=center;verticalAlign=middle;resizable=0;points=[];autosize=1;strokeColor=none;fillColor=none;" parent="1" vertex="1">
          <mxGeometry x="140" y="440" width="70" height="20" as="geometry" />
        </mxCell>
        <mxCell id="l2YeyNYo_XrpYZh6Aza8-80" value="&lt;font color=&quot;#000000&quot;&gt;nombre&lt;/font&gt;" style="text;html=1;align=center;verticalAlign=middle;resizable=0;points=[];autosize=1;strokeColor=none;fillColor=none;fontColor=#FF6666;" parent="1" vertex="1">
          <mxGeometry x="407" y="470" width="60" height="20" as="geometry" />
        </mxCell>
        <mxCell id="l2YeyNYo_XrpYZh6Aza8-81" value="descripcion" style="text;html=1;align=center;verticalAlign=middle;resizable=0;points=[];autosize=1;strokeColor=none;fillColor=none;fontColor=#000000;" parent="1" vertex="1">
          <mxGeometry x="467" y="440" width="80" height="20" as="geometry" />
        </mxCell>
      </root>
    </mxGraphModel>
  </diagram>
</mxfile>
